<?xml version="1.0" encoding="utf-8"?>
<!-- Generator: Adobe Illustrator 25.1.0, SVG Export Plug-In . SVG Version: 6.00 Build 0)  -->
<svg version="1.1" id="Layer_1" xmlns="http://www.w3.org/2000/svg" xmlns:xlink="http://www.w3.org/1999/xlink" x="0px" y="0px"
	 viewBox="0 0 242 58" style="enable-background:new 0 0 242 58;" xml:space="preserve">
<style type="text/css">
	.st0{clip-path:url(#SVGID_2_);}
	.st1{fill:#FAD5CC;}
</style>
<g>
	<defs>
		<rect id="SVGID_1_" width="242" height="58"/>
	</defs>
	<clipPath id="SVGID_2_">
		<use xlink:href="#SVGID_1_"  style="overflow:visible;"/>
	</clipPath>
	<g class="st0">
		<path class="st1" d="M38.7,20c-5,0-8.4,3.2-8.4,7.4c0,3.8,2.6,5.3,5,5.3c1.5,0,2.9-0.4,3.8-1.3c-2,9.1-12.4,18.2-19.7,18.2
			c-2.4,0-3.7-0.9-3.7-3.2c0-4.9,4.8-11.9,4.8-18.7c0-5-3-7.7-7.9-7.7C8.3,20,4.2,22,0,26c1.5,1.8,2.6,3.8,3.5,5.9
			c2.7-3.2,4.4-4.1,5.8-4.1c1.2,0,1.8,0.7,1.8,1.9c0,4.7-4.9,12-4.9,18.8c0,6.3,3.7,9.4,10.4,9.5c15.9,0.2,30.7-15.5,30.7-28.3
			C47.2,23.5,44.2,20,38.7,20z"/>
		<path class="st1" d="M91.3,30.5c0-5.9-4.6-10.5-14.8-10.5c-17.1,0-26.8,10.9-26.8,22.9C49.7,52,56,58,68.9,58
			c7.3,0,14.6-1.6,21.9-7.6c-1.4-1.5-2.7-3.2-4.5-5.9c-2.1,2.1-4.7,3.7-7.5,4.6c-2.6,0.9-5.3,1.4-8,1.4c-6.5,0-10.3-2-10.9-6.7
			C79.9,44.1,91.3,39.6,91.3,30.5z M65.4,31c2.8-2.1,6.1-3.1,10.2-3.1c4.2,0,6.4,1.4,6.4,3.8c0,4.3-6.5,6.1-21.8,6.9
			C61,35.6,62.7,33,65.4,31z"/>
		<path class="st1" d="M136,19.9c-6.4,0-11.8,4.9-16.7,15.5h-0.7c0.7-3.2,1-5.6,1-7.1c0-5.5-3.3-8.3-8.6-8.3c-4.6,0-9.1,2.1-13.8,6
			c1.4,1.5,2.6,3.5,3.9,6c3.1-2.9,5.4-4.2,7.7-4.2c1.7,0,2.4,1.1,2.4,2.9c0,2.6-1.6,8.3-4.2,15.3c-1.1,2.7-2.1,3.3-4.2,3.3
			c-3.1,0-5.6-0.2-6.7-0.2c-0.5,2.7-1.7,5.4-2.8,8.1c1-0.1,3.1-0.1,6.2-0.1c3.1-0.1,6.5-0.1,10.1-0.1c3.6,0,7,0,10.2,0.1
			c3.2,0,5.4,0,6.5,0.1c0.5-2.7,1.8-5.4,2.9-8.1c-1.6,0.1-5.3,0.2-9.1,0.2c-2.6,0-2.9-1.8-2.2-3.8c1.9-5.1,4.3-9.2,7.2-12.3
			c2.9-3.1,6-4.6,9.2-4.6c2.1,0,3.9,0.7,5,2.2c-0.4-0.1-0.8-0.1-1.2-0.1c-3.9,0-6.1,2.7-6.1,5.9c0,3.2,2,5.2,5.2,5.2
			c5.1,0,7.7-5.4,7.7-11.5C144.8,24.7,142.1,19.9,136,19.9z"/>
		<path class="st1" d="M227.2,14.7c5,0,7.7-3.2,7.7-7.4c0-4.1-2.7-7.3-7.7-7.3c-5,0-7.8,3.2-7.8,7.3
			C219.4,11.4,221.6,14.7,227.2,14.7z"/>
		<path class="st1" d="M236.5,41.5c-4.6,5.8-9.3,8.1-12.8,8.1c-2.4,0-3.6-1-3.6-3c0-4.3,6.9-14,6.9-19.3c0-4.8-3.3-7.2-8.6-7.2
			c-1.7,0-3.4,0.2-5,0.6c-2.6,0.5-5.6,1.8-9.1,3.9c-2.3,1.4-4.5,3-6.6,4.7c-1.6,1.1-3.9,3.3-7.7,7c-2.3,2.3-5.7,5.7-8.2,7.8
			c-4.8,3.8-10.5,5.7-15.6,5.7c-6.7,0-10.2-2.7-10.2-8c0-7.5,6.7-14.1,16.6-14.1c2.7,0,5.6,0.6,7.3,2.3c-2.6,0.3-5,2.1-5,5.1
			c0,2.6,2.1,4.6,5.6,4.6c4.8,0,7.4-3.8,7.4-8.6c0-5.7-4.3-11.3-15.3-11.3c-17.9,0-26.6,11.6-26.6,23.3c0,9.4,6.1,14.7,18.7,14.7
			c3.8,0,7.5-0.5,11.1-1.5c3.5-1,7.2-3.2,11.2-6.4c2.3-2,5.2-4.8,8.6-8.1c2.5-2.5,9.7-8.4,13-10.4c4.6-2.8,6.1-2.4,6.3-2.3
			c1,0.2,1.7,0.9,1.7,1.9c0,3.5-6.4,11.4-6.4,18c0,5.9,3.7,8.9,10.9,8.9c6.4,0,13.6-3.1,20.7-11.1C240.3,45.7,238.2,43.5,236.5,41.5
			z"/>
	</g>
</g>
</svg>
