<svg width="242" height="58" viewBox="0 0 242 58" fill="none" xmlns="http://www.w3.org/2000/svg">
<g clip-path="url(#clip0_2_1073)">
<path d="M38.672 19.9648C33.7097 19.9648 30.267 23.1318 30.267 27.3336C30.267 31.0853 32.8971 32.6484 35.3101 32.6484C36.7709 32.6484 38.1602 32.2076 39.1124 31.3229C37.1368 40.3893 26.6848 49.5245 19.446 49.5245C17.0331 49.5245 15.7896 48.6397 15.7896 46.3575C15.7896 41.4178 20.6153 34.493 20.6153 27.6369C20.6153 22.6347 17.6193 19.9742 12.719 19.9742C8.33355 19.9742 4.1652 21.9626 0.00305176 26.0174C1.46739 27.7885 2.65069 29.7775 3.51081 31.9137C6.21528 28.6686 7.8994 27.787 9.28575 27.787C10.4581 27.787 11.0412 28.4498 11.0412 29.7003C11.0412 34.418 6.14402 41.7148 6.14402 48.4928C6.14402 54.7455 9.79744 57.9249 16.5245 58C32.4628 58.222 47.2288 42.5246 47.2288 29.7003C47.2257 23.507 44.1554 19.9648 38.672 19.9648Z" fill="#0F2E58"/>
<path d="M91.3067 30.51C91.3067 24.6137 86.7011 19.9711 76.5407 19.9711C59.4331 19.9711 49.71 30.879 49.71 42.8904C49.71 52.0287 55.9967 57.9969 68.8646 57.9969C76.1747 57.9969 83.4848 56.3743 90.7236 50.4061C89.3342 48.9336 88.0191 47.236 86.1893 44.5098C84.0822 46.6226 81.4998 48.1906 78.662 49.0806C76.0702 49.9671 73.3567 50.4397 70.6199 50.4812C64.1069 50.4812 60.3107 48.4897 59.7246 43.7751C79.9026 44.069 91.3067 39.5733 91.3067 30.51ZM65.4158 30.9509C68.2071 28.8875 71.5566 27.8558 75.5792 27.8558C79.7445 27.8558 81.9372 29.2564 81.9372 31.6887C81.9372 36.0374 75.4241 37.8038 60.1525 38.6167C60.9682 35.5966 62.7237 33.0143 65.4158 30.9509Z" fill="#0F2E58"/>
<path d="M135.974 19.8961C129.541 19.8961 124.204 24.7607 119.226 35.3715H118.565C119.226 32.2045 119.589 29.7722 119.589 28.2246C119.589 22.6972 116.301 19.9711 111.038 19.9711C106.429 19.9711 101.973 22.1064 97.2181 26.0143C98.6075 27.5618 99.8512 29.5502 101.095 31.9825C104.237 29.1094 106.504 27.7838 108.771 27.7838C110.452 27.7838 111.184 28.8874 111.184 30.7288C111.184 33.3081 109.633 39.0574 106.941 46.0479C105.846 48.7772 104.823 49.365 102.776 49.365C99.631 49.365 97.2181 49.143 96.0488 49.143C95.5371 51.7973 94.3678 54.5235 93.2729 57.2496C94.2964 57.1777 96.3434 57.1777 99.4758 57.1777C102.621 57.1027 105.989 57.1027 109.565 57.1027C113.141 57.1027 116.583 57.1027 119.725 57.1777C122.945 57.1777 125.137 57.1777 126.238 57.2496C126.75 54.5985 127.994 51.8723 129.092 49.143C127.541 49.2181 123.819 49.365 119.952 49.365C117.322 49.365 117.101 47.5955 117.759 45.5321C119.66 40.4487 122.073 36.3219 124.998 33.2268C127.922 30.1317 130.993 28.5842 134.209 28.5842C136.327 28.5842 138.083 29.247 139.252 30.7945C138.841 30.7323 138.426 30.7072 138.011 30.7195C134.138 30.7195 131.945 33.4488 131.945 36.6158C131.945 39.7827 133.917 41.7742 137.137 41.7742C142.254 41.7742 144.813 36.3938 144.813 30.2786C144.813 24.6856 142.115 19.8961 135.974 19.8961Z" fill="#0F2E58"/>
<path d="M227.16 14.6657C232.122 14.6657 234.836 11.4237 234.836 7.29688C234.836 3.23263 232.131 0 227.16 0C222.188 0 219.406 3.24201 219.406 7.29688C219.409 11.4237 221.605 14.6657 227.16 14.6657Z" fill="#0F2E58"/>
<path d="M236.517 41.4898C231.911 47.311 227.234 49.5964 223.723 49.5964C221.31 49.5964 220.141 48.6366 220.141 46.5732C220.141 42.2995 227.085 32.5734 227.085 27.2649C227.085 22.4753 223.798 20.0462 218.534 20.0462C216.853 20.0467 215.178 20.2567 213.547 20.6714C210.97 21.181 207.965 22.4753 204.494 24.5856C202.201 26.0014 200.002 27.568 197.913 29.2752C196.312 30.3694 193.98 32.5359 190.234 36.3C187.926 38.6167 184.512 42.0431 182.068 44.1472C177.248 47.9832 171.523 49.8715 166.458 49.8715C159.734 49.8715 156.223 47.1453 156.223 41.8399C156.223 34.3367 162.876 27.7714 172.819 27.7714C175.523 27.7714 178.448 28.3591 180.129 30.0536C177.499 30.3662 175.086 32.117 175.086 35.1402C175.086 37.7194 177.208 39.7828 180.641 39.7828C185.395 39.7828 188.084 35.9499 188.084 31.2322C188.084 25.5579 183.77 19.9586 172.803 19.9586C154.893 19.9586 146.193 31.6011 146.193 43.2468C146.193 52.6039 152.26 57.9844 164.907 57.9844C168.666 58.0127 172.409 57.4914 176.02 56.4368C179.535 55.3947 183.264 53.2574 187.207 50.0247C189.486 48.052 192.429 45.2539 195.76 41.8962C198.211 39.4358 205.49 33.4551 208.759 31.4605C213.346 28.6468 214.869 29.1095 215.098 29.1563C216.128 29.3721 216.764 30.0505 216.764 31.0728C216.764 34.6118 210.402 42.4965 210.402 49.0555C210.402 54.9487 214.059 57.9719 221.295 57.9719C227.656 57.9719 234.895 54.8768 241.984 46.9171C240.319 45.6885 238.198 43.4781 236.517 41.4898Z" fill="#0F2E58"/>
</g>
<defs>
<clipPath id="clip0_2_1073">
<rect width="242" height="58" fill="white"/>
</clipPath>
</defs>
</svg>
